<svg version="1.1" id="Capa_1" xmlns="http://www.w3.org/2000/svg" x="0" y="0" viewBox="0 0 700 700" style="enable-background:new 0 0 700 700" xml:space="preserve">
  <style>
    .st0{fill:#f7f8fd}.st1{fill:#c0caef}
  </style>
  <path class="st0" d="M151.3 216.3c107 3.4 216.5 42.3 322.6 93.6 39.4 19 77.6 40.3 114.5 63.9 7.1 4.5 15.4 4.8 23.2 6.7 5.8 1.4 10.4 3.6 12 9.7 1.4 5.2 4.7 6.5 9.7 6.1 14.1-1.1 27 2.5 38.6 10.5 11.2 7.8 10.4 16.3-2 21.8-6.4 2.8-13 4.6-11 14.3.8 3.9-3.4 6.6-7.2 7.7-6.5 1.8-7.1 5.6-4.5 11 .7 1.5 1.3 3.3 1.5 4.9 1.4 9.9-4 16.2-13.8 15-13.3-1.6-26.6-4.9-36.8-13.9-6.7-5.9-13.6-3.1-20.5-3.5-2.7-.2-1.9 2-1.8 3.7 1 11.2-1.2 13.6-12.6 13.9-1.7.1-3.3.6-5 1-9.4 2.5-13.7.1-15.7-9.3-1.5-7.2-4.8-10.7-13.1-11.6-23.9-2.5-47.6-6.5-71.4-9.8-4.5-.6-10.5-2.7-7.7 6.1.4 1.2-.1 2.9-.7 4.2-3.1 7.3-26.6 10.8-30.4 3.8-3.3-6-10.4-10.6-9.1-18.9.5-3.2-1.7-3.8-4.2-4.2-12.2-2.3-24.5-4.6-36.6-7.1-4.1-.8-6.3-.7-6.2 4.6 0 5.5-4.8 9.2-9.3 8.4-8-1.4-18.7 8.5-23.8-5.3-4.6-12.4-12.1-19.3-26.5-22.3-56.6-11.8-112.4-27.4-168-43.3-5.7-1.6-11-4.1-13.9-9.6-1.9-3.5-5.2-4.3-8.3-5.7-26.3-12.1-50.6-27-69.8-49.1-10.8-12.4-18.2-26.5-22.1-42.7-3-12.2.7-20.8 9.8-28.2 8-6.5 17-11 26.6-14.5 26-9.5 53.3-12.3 93.5-11.9z"/>
  <path class="st1" d="M138.1 221.9c66.7 1 131.1 15.1 194.2 35.9 89.1 29.5 173 70 252.1 120.4 6.9 4.4 14.7 5.2 22.2 6.9 6.1 1.4 10.8 3.4 12.9 9.9 1.9 6 5.7 7.8 12.5 6.9 12.7-1.8 24.8 1.7 35.6 8.7 7.6 4.9 7.3 9.1-.7 13.1-3.6 1.8-7.3 3.5-11 5.2-2.7 1.2-4.4 3-3.2 6.1 2.6 6.5-.6 10.1-6.4 11.8-7.4 2.2-8.6 6.6-5.4 13.1 1.1 2.3 1.9 4.9 2.2 7.5.7 5.7-2.1 9.4-7.9 8.6-11.8-1.8-23.8-4.3-32.9-12.4-5.3-4.7-10.4-6.5-17.1-5.3-3.4.6-7 0-10.4.4-5.4.6-8.9 2.2-5.5 8.9 3.1 6 1 8.8-5.5 8.2-.6-.1-1.3-.7-1.6-.5-15.3 7.7-13.7-6.8-17.1-13.6-1.4-2.9-2.5-4-5.3-4.3-29.7-2.9-59.2-7.2-88.7-12-8.5-1.4-10 .9-7 9.5.7 2 1.2 3.9-.2 5.7-1.2 1.6-19.3 3.6-19.7 2-1.9-6.5-11.3-10.2-7.2-19 1.8-3.9-1.6-4.3-4.1-4.8-17.3-3.4-34.7-6.7-52.1-9.9-6.3-1.2-7.4 1.1-4.4 6.6 3.2 5.8.3 8.1-5.6 7.5-.8-.1-1.7-.7-2.5-.7-4.5-.1-10.2 7.7-13-2.3-1.4-5.2-7.8-7.8-7.3-14.3.4-5.6-4.9-4.9-8.2-5.7-43.8-9.9-87.4-20.7-130.7-32.6-17.3-4.7-34.6-9.7-51.9-14.6-1.9-.6-4.5-.9-5.6-2.3-12.2-15.2-31.8-18.3-46.9-28.8-16.1-11.2-31.6-22.7-43-38.8-7.1-10.1-11.7-21.1-14.9-33.1-2.7-10.2 1-16.9 8.3-22.7 13.8-10.9 30.2-15.9 46.9-19.7 18.4-4.2 37.1-6.3 56.1-5.5z"/>
  <path class="st0" d="M31.9 257.2c7-9.4 16.6-14.2 26.7-17.9 29.2-11 59.5-14.1 90.5-12.6 112.6 5.3 215.9 42.5 316.2 90.6 40.8 19.6 80.3 41.6 118.5 65.9 6.8 4.3 14.9 4.5 22.4 6.7 9.8 2.8 14.1 12.6 9 21.3-2 3.5-.5 5.6 2 7.4 7.3 5.1 14.2 11.2 23.6 12.3 4.3.5 6.4 3 7.8 8.4-12.9-6.5-24.6-12.6-36.5-18.2-98.3-45.7-200.4-80.8-304.6-110-64.7-18.2-129.8-34.9-196.2-46.1-23.7-4-47.6-7.1-71.8-6.2-2.2-.1-4.6.7-7.6-1.6z"/>
  <path class="st0" d="M641.6 443c-2.6 1.7-4.5-.3-6.5-1.2-90.8-41-184.8-73.3-280.3-101.2-70.7-20.7-141.7-39.9-214.3-52.9-31.9-5.7-64-11.6-96.6-5.4-6.7 1.3-6.9-4.1-7.7-8-1.3-6.2 3.7-5.3 7.3-5.4 37.1-.8 73.3 5.6 109.3 13.5 123.3 27.1 244.6 61 362.8 105.6 41 15.5 81.1 33.1 121 50.9 2 .9 4.7 1.1 5 4.1zm-454.4-86.6c-17.6-4.3-35.2-7-53.2-4.6-5.5.7-5-3.4-5.9-6.5-1.3-4.6 1.7-5.8 5.1-5.8 19.6.3 38.3 3.6 54 16.9z"/>
  <path class="st1" d="M479.7 352.7c-49.9-19.6-100.3-37.6-152.1-51.7-69.9-19-140.5-35-212.5-43.6-8.9-1.1-17.8-1.7-26.7-3 17-1.8 34 0 50.9 1.8 119.3 12.6 231.9 49 341.9 95 .5 1.5.3 2.3-1.5 1.5z"/>
  <path class="st1" d="M553.6 372.7c-139.9-73.8-286.4-121.3-439.8-129.8 21.6-3.5 47.9-1.7 74.3 1 74.3 7.5 143.8 33.2 213.4 57.8 49.8 17.6 98.3 38.3 144.1 65 2.6 1.5 5.7 2.5 8 6z"/>
  <path class="st1" d="m479.7 352.7 1.5-1.5c17.2 6.6 33.9 14.2 49.7 24.1-17.1-7.5-34.1-15.1-51.2-22.6z"/>
</svg>
