<svg version="1.1" id="Capa_1" xmlns="http://www.w3.org/2000/svg" x="0" y="0" viewBox="0 0 700 700" style="enable-background:new 0 0 700 700" xml:space="preserve">
  <style>
    .st0{fill:#f7f8fd}.st1{fill:#c0caef}
  </style>
  <path class="st0" d="M195.9 247.1c84 2.6 170.1 33.2 253.4 73.5 30.9 15 60.9 31.7 89.9 50.2 5.5 3.5 12.1 3.8 18.2 5.2 4.6 1.1 8.2 2.9 9.5 7.6 1.1 4.1 3.7 5.1 7.6 4.8 11-.8 21.2 1.9 30.3 8.3 8.8 6.1 8.1 12.8-1.6 17.1-5 2.2-10.2 3.6-8.6 11.2.6 3.1-2.7 5.2-5.6 6-5.1 1.5-5.6 4.4-3.5 8.6.6 1.2 1 2.6 1.2 3.9 1.1 7.7-3.1 12.7-10.8 11.8-10.5-1.2-20.9-3.8-28.9-10.9-5.2-4.6-10.7-2.4-16.1-2.7-2.1-.1-1.5 1.5-1.4 2.9.8 8.8-1 10.7-9.9 11-1.3 0-2.6.5-3.9.8-7.3 2-10.8.1-12.3-7.3-1.2-5.7-3.7-8.4-10.3-9.1-18.8-2-37.4-5.1-56.1-7.7-3.5-.5-8.2-2.2-6.1 4.8.3 1-.1 2.3-.5 3.3-2.4 5.8-20.9 8.5-23.9 3-2.6-4.7-8.2-8.3-7.2-14.8.4-2.5-1.3-3-3.3-3.3-9.6-1.8-19.2-3.6-28.8-5.5-3.2-.7-4.9-.5-4.9 3.6 0 4.3-3.7 7.2-7.3 6.6-6.2-1.1-14.7 6.7-18.7-4.1-3.6-9.7-9.5-15.2-20.8-17.5-44.5-9.3-88.3-21.5-132-34-4.5-1.3-8.6-3.3-10.9-7.5-1.5-2.8-4.1-3.4-6.6-4.5-20.7-9.5-39.7-21.2-54.8-38.6-8.5-9.7-14.3-20.8-17.4-33.6-2.3-9.6.5-16.3 7.7-22.2 6.3-5.1 13.4-8.6 20.9-11.4 20.5-7.7 41.9-9.9 73.5-9.5z"/>
  <path class="st1" d="M185.5 251.4c52.4.8 103 11.8 152.5 28.2 70 23.2 135.9 55 198 94.6 5.4 3.5 11.5 4.1 17.5 5.4 4.8 1.1 8.5 2.7 10.1 7.8 1.5 4.7 4.5 6.1 9.8 5.4 10-1.4 19.5 1.3 28 6.8 6 3.8 5.7 7.1-.5 10.3-2.8 1.4-5.8 2.7-8.7 4.1-2.1 1-3.4 2.4-2.5 4.8 2 5.1-.5 7.9-5 9.3-5.8 1.8-6.7 5.2-4.3 10.3.9 1.8 1.5 3.9 1.8 5.9.5 4.5-1.7 7.4-6.2 6.7-9.3-1.4-18.7-3.4-25.9-9.7-4.2-3.7-8.1-5.1-13.4-4.2-2.7.5-5.5 0-8.2.3-4.2.5-7 1.7-4.3 7 2.4 4.7.8 6.9-4.3 6.4-.4 0-1-.6-1.3-.4-12 6-10.8-5.3-13.4-10.7-1.1-2.2-2-3.1-4.2-3.4-23.3-2.3-46.5-5.7-69.7-9.4-6.6-1.1-7.9.7-5.5 7.5.5 1.6.9 3.1-.2 4.5-1 1.3-15.1 2.8-15.5 1.6-1.5-5.1-8.9-8-5.7-14.9 1.4-3.1-1.3-3.4-3.2-3.8-13.6-2.7-27.3-5.3-40.9-7.8-4.9-.9-5.8.9-3.4 5.2 2.5 4.6.3 6.3-4.4 5.9-.7-.1-1.3-.6-2-.6-3.5 0-8 6-10.2-1.8-1.1-4.1-6.1-6.1-5.8-11.2.3-4.4-3.8-3.9-6.4-4.5-34.4-7.7-68.7-16.3-102.7-25.6-13.6-3.7-27.2-7.6-40.8-11.5-1.5-.4-3.5-.7-4.4-1.8-9.6-12-25-14.4-36.8-22.6-12.6-8.8-24.8-17.8-33.8-30.5-5.6-7.9-9.2-16.6-11.7-26-2.1-8 .8-13.3 6.5-17.8 10.8-8.6 23.7-12.5 36.9-15.5 14.6-3.2 29.3-4.9 44.2-4.3z"/>
  <path class="st0" d="M102.2 279.2c5.5-7.4 13-11.1 20.9-14.1 22.9-8.6 46.7-11.1 71.1-9.9 88.4 4.1 169.6 33.4 248.3 71.2 32.1 15.4 63.1 32.6 93 51.8 5.3 3.4 11.7 3.6 17.6 5.2 7.7 2.2 11.1 9.9 7.1 16.7-1.6 2.7-.4 4.4 1.6 5.8 5.8 4 11.2 8.8 18.5 9.7 3.4.4 5.1 2.3 6.2 6.6-10.2-5.1-19.3-9.9-28.7-14.3-77.2-35.9-157.4-63.5-239.3-86.4-50.8-14.3-102-27.4-154.1-36.2-18.6-3.2-37.4-5.6-56.4-4.9-1.6-.1-3.5.6-5.8-1.2z"/>
  <path class="st0" d="M581 425.1c-2 1.3-3.5-.2-5.1-.9-71.3-32.2-145.1-57.6-220.2-79.5-55.5-16.2-111.3-31.3-168.3-41.6-25-4.5-50.3-9.1-75.9-4.2-5.3 1-5.4-3.2-6-6.3-1-4.9 2.9-4.2 5.7-4.2 29.1-.6 57.6 4.4 85.9 10.6 96.8 21.3 192.1 47.9 284.9 83 32.2 12.2 63.7 26 95 40 1.6.6 3.7.7 4 3.1zM224.1 357c-13.8-3.4-27.6-5.5-41.8-3.6-4.3.6-3.9-2.6-4.7-5.1-1-3.6 1.3-4.6 4-4.5 15.5.2 30.2 2.8 42.5 13.2z"/>
  <path class="st1" d="M453.9 354.2c-39.2-15.4-78.8-29.6-119.4-40.6-54.9-14.9-110.3-27.5-166.9-34.3-7-.8-14-1.4-21-2.3 13.4-1.4 26.7 0 40 1.4 93.7 9.9 182.2 38.5 268.5 74.6.3 1.1.2 1.8-1.2 1.2z"/>
  <path class="st1" d="M511.9 369.9c-109.9-58-224.9-95.3-345.4-102 17-2.7 37.6-1.3 58.3.8 58.4 5.9 112.9 26 167.6 45.4 39.1 13.8 77.2 30 113.2 51.1 2 1.1 4.5 1.9 6.3 4.7z"/>
  <path class="st1" d="m453.9 354.2 1.2-1.2c13.5 5.2 26.6 11.2 39 18.9-13.5-5.9-26.8-11.8-40.2-17.7z"/>
</svg>
