<?xml version="1.0" encoding="iso-8859-1"?>
<!-- Uploaded to: SVG Repo, www.svgrepo.com, Generator: SVG Repo Mixer Tools -->
<svg height="800px" width="800px" version="1.1" id="Layer_1" xmlns="http://www.w3.org/2000/svg" xmlns:xlink="http://www.w3.org/1999/xlink" 
	 viewBox="0 0 511.999 511.999" xml:space="preserve">
<g>
	<path style="fill:#CEE8FA;" d="M308.885,368.341c-44.413,0-93.035-14.739-137.775-34.626l40.496,86.55h143.468l29.53-63.112
		C362.692,364.188,337.491,368.341,308.885,368.341z"/>
	<path style="fill:#CEE8FA;" d="M498.33,230.037c0,22.409-59.782,58.4-189.445,58.4S13.67,252.448,13.67,230.037
		s165.552-58.4,295.215-58.4S498.33,207.628,498.33,230.037z"/>
</g>
<path style="fill:#2D527C;" d="M461.358,130.807c-26.826-24.062-75.055-52.743-152.473-52.743
	c-34.214,0-73.035,7.946-115.387,23.614c-7.081,2.621-10.697,10.484-8.076,17.565c2.621,7.082,10.485,10.693,17.565,8.078
	c39.303-14.544,74.933-21.916,105.898-21.916c88.186,0,139.74,40.912,162.236,80.197c-4.362-2.067-9.04-4.056-14.047-5.952
	c-26.117-9.89-73.027-21.682-148.187-21.682c-60.175,0-134.558,7.879-198.974,21.075c-6.227,1.275-12.246,2.584-18.058,3.912
	c13.773-8.709,29.347-17.797,46.39-26.68c6.44-3.357,9.073-11.122,6.158-17.669c-0.636-2.294-1.863-4.454-3.707-6.219L96.957,90.546
	c-4.171-3.993-10.399-4.929-15.563-2.35l-55.852,27.927c-4.631,2.316-7.557,7.048-7.557,12.227v74.907
	c-6.368,5.785-10.495,10.347-13.148,13.991c-1.717,2.101-3.031,4.369-3.855,6.82C0.007,226.689,0,228.552,0,230.037
	c0,1.367,0.007,2.875,0.641,4.834c1.304,4.883,4.554,9.047,8.987,12.665c2.23,2.294,4.973,4.893,8.357,7.858v76.331
	c0,5.178,2.925,9.911,7.557,12.227l55.852,27.925c1.963,0.982,4.048,1.446,6.102,1.446c5.014,0,9.842-2.77,12.238-7.56
	c3.377-6.752,0.638-14.963-6.113-18.34l-48.297-24.147v-46.392c18.155,13.162,39.181,26.699,60.535,38.93
	c16.247,9.305,34.901,19.159,55.044,28.344l38.32,81.901c2.249,4.806,7.076,7.877,12.382,7.877h143.467
	c5.307,0,10.134-3.07,12.382-7.877l27.026-57.762c29.969-10.53,51.803-25.507,66.876-39.028
	c31.238-28.017,50.642-66.04,50.642-99.23S492.595,158.825,461.358,130.807z M126.562,203.613
	c60.742-11.635,127.195-18.307,182.323-18.307c69.704,0,112.833,10.469,136.738,19.252c31,11.389,38.749,23.159,39.035,25.398
	c0,0.014,0.001,0.027,0.001,0.04c-0.277,2.35-8.019,14.125-39.035,25.519c-23.905,8.783-67.034,19.252-136.738,19.252
	c-55.128,0-121.581-6.672-182.323-18.307c-50.806-9.73-81.037-19.915-93.851-26.423C45.526,223.53,75.756,213.344,126.562,203.613z
	 M85.012,116.955l24.706,23.637c-23.016,12.791-45.265,26.888-64.393,40.823V136.8L85.012,116.955z M346.378,406.594H220.302
	l-21.99-46.999c23.152,8.519,47.392,15.42,71.612,19.215c0.18,0.029,0.358,0.053,0.539,0.082c1.981,0.306,3.96,0.596,5.94,0.86
	c0.466,0.063,0.93,0.116,1.394,0.176c1.696,0.217,3.392,0.427,5.087,0.611c0.725,0.079,1.441,0.145,2.161,0.217
	c1.445,0.145,2.888,0.29,4.331,0.411c0.971,0.082,1.932,0.144,2.895,0.213c1.203,0.086,2.406,0.179,3.606,0.247
	c1.271,0.072,2.529,0.119,3.791,0.171c0.905,0.037,1.813,0.087,2.716,0.113c2.183,0.064,4.353,0.1,6.502,0.1
	c2.288,0,4.566-0.029,6.834-0.079c1.336-0.03,2.644-0.083,3.962-0.13c0.876-0.031,1.757-0.053,2.63-0.092
	c1.874-0.083,3.721-0.191,5.558-0.309c0.273-0.018,0.548-0.03,0.82-0.048c11.107-0.738,21.539-2.082,31.331-3.914L346.378,406.594z
	 M380.977,344.002c-0.183,0.051-0.37,0.075-0.552,0.134c-16.164,5.191-33.598,8.478-52.024,9.827
	c-0.301,0.022-0.599,0.045-0.901,0.066c-1.146,0.079-2.297,0.149-3.45,0.213c-0.66,0.037-1.322,0.071-1.986,0.103
	c-0.939,0.045-1.88,0.087-2.823,0.124c-0.975,0.037-1.956,0.064-2.94,0.092c-0.714,0.019-1.426,0.042-2.142,0.056
	c-1.744,0.033-3.498,0.055-5.273,0.055c-2.2,0-4.426-0.046-6.671-0.123c-0.655-0.022-1.312-0.06-1.967-0.089
	c-1.631-0.071-3.27-0.156-4.924-0.265c-0.712-0.048-1.424-0.103-2.138-0.157c-1.716-0.131-3.442-0.283-5.181-0.457
	c-0.577-0.057-1.152-0.112-1.729-0.174c-32.561-3.494-69.31-14.27-109.61-32.185c-0.231-0.103-0.466-0.19-0.701-0.28
	c-17.833-7.977-34.419-16.505-48.924-24.569c-11.152-6.199-21.525-12.359-31.052-18.319c4.525,1.009,9.16,2.004,13.923,2.979
	c64.418,13.196,138.8,21.074,198.974,21.074c75.16,0,122.07-11.79,148.187-21.682c5.009-1.896,9.687-3.886,14.049-5.952
	C455.648,301.496,426.421,329.284,380.977,344.002z"/>
</svg>