<svg xmlns="http://www.w3.org/2000/svg" xmlns:xlink="http://www.w3.org/1999/xlink" xmlns:lucid="lucid" width="1540" height="1310.25">
  <g transform="translate(-40)" lucid:page-tab-id="0_0">
    <path d="M800 26a6 6 0 0 1 6-6h388a6 6 0 0 1 6 6v68a6 6 0 0 1-6 6H806a6 6 0 0 1-6-6z" fill="#5865f2"/>
    <use xlink:href="#a" transform="translate(873.704 53.278)"/>
    <use xlink:href="#b" transform="translate(970.988 53.278)"/>
    <use xlink:href="#c" transform="translate(1040 53.278)"/>
    <use xlink:href="#d" transform="translate(1062.16 53.278)"/>
    <use xlink:href="#e" transform="translate(912.5 79.944)"/>
    <use xlink:href="#f" transform="translate(980.278 79.944)"/>
    <path d="M440 126a6 6 0 0 1 6-6h348a6 6 0 0 1 6 6v268a6 6 0 0 1-6 6H446a6 6 0 0 1-6-6zm36-6v280m-36-244h360m400-30a6 6 0 0 1 6-6h348a6 6 0 0 1 6 6v268a6 6 0 0 1-6 6h-348a6 6 0 0 1-6-6zm36-6v280m-36-244h360M440 447.42a6 6 0 0 1 6-6h348a6 6 0 0 1 6 6V694a6 6 0 0 1-6 6H446a6 6 0 0 1-6-6zm36-6V700m-36-222.58h360m400-30a6 6 0 0 1 6-6h348a6 6 0 0 1 6 6V694a6 6 0 0 1-6 6h-348a6 6 0 0 1-6-6zm36-6V700m-36-222.58h360" stroke="#5865f2" stroke-width="3" fill="none"/>
    <path d="M540 114.33a6 6 0 0 1 6-6h148a6 6 0 0 1 6 6v51.34a6 6 0 0 1-6 6H546a6 6 0 0 1-6-6z" fill="none"/>
    <use xlink:href="#g" transform="translate(560.309 144.611)"/>
    <path d="M1310 126a6 6 0 0 1 6-6h148a6 6 0 0 1 6 6v28a6 6 0 0 1-6 6h-148a6 6 0 0 1-6-6z" fill="none"/>
    <use xlink:href="#h" transform="translate(1304.475 144.944)"/>
    <path d="M540 446a6 6 0 0 1 6-6h148a6 6 0 0 1 6 6v28a6 6 0 0 1-6 6H546a6 6 0 0 1-6-6z" fill="none"/>
    <use xlink:href="#i" transform="translate(574.352 464.715)"/>
    <path d="M1310 447.42a6 6 0 0 1 6-6h148a6 6 0 0 1 6 6v28a6 6 0 0 1-6 6h-148a6 6 0 0 1-6-6z" fill="none"/>
    <use xlink:href="#j" transform="translate(1353.642 466.133)"/>
    <path d="M440 747.42a6 6 0 0 1 6-6h348a6 6 0 0 1 6 6V1034a6 6 0 0 1-6 6H446a6 6 0 0 1-6-6zm36-6V1040m-36-262.58h360m400-30a6 6 0 0 1 6-6h348a6 6 0 0 1 6 6V1034a6 6 0 0 1-6 6h-348a6 6 0 0 1-6-6zm36-6V1040m-36-262.58h360" stroke="#5865f2" stroke-width="3" fill="none"/>
    <path d="M520 735.75a6 6 0 0 1 6-6h188a6 6 0 0 1 6 6v51.33a6 6 0 0 1-6 6H526a6 6 0 0 1-6-6z" fill="none"/>
    <use xlink:href="#k" transform="translate(536.852 766.028)"/>
    <use xlink:href="#l" transform="translate(604.568 766.028)"/>
    <use xlink:href="#m" transform="translate(618.086 766.028)"/>
    <path d="M1280 747.42a6 6 0 0 1 6-6h208a6 6 0 0 1 6 6v28a6 6 0 0 1-6 6h-208a6 6 0 0 1-6-6z" fill="none"/>
    <use xlink:href="#k" transform="translate(1301.358 766.133)"/>
    <use xlink:href="#l" transform="translate(1369.074 766.133)"/>
    <use xlink:href="#n" transform="translate(1382.593 766.133)"/>
    <path d="M820 1037.67a6 6 0 0 1 6-6h348a6 6 0 0 1 6 6v246.58a6 6 0 0 1-6 6H826a6 6 0 0 1-6-6zm36-6v258.58m-36-222.58h360" stroke="#5865f2" stroke-width="3" fill="none"/>
    <path d="M900 1026a6 6 0 0 1 6-6h188a6 6 0 0 1 6 6v51.33a6 6 0 0 1-6 6H906a6 6 0 0 1-6-6z" fill="none"/>
    <use xlink:href="#o" transform="translate(956.296 1056.278)"/>
    <path d="M60 1037.67a6 6 0 0 1 6-6h348a6 6 0 0 1 6 6v246.58a6 6 0 0 1-6 6H66a6 6 0 0 1-6-6zm36-6v258.58m-36-222.58h360" stroke="#f25858" stroke-width="3" fill="none"/>
    <path d="M140 1026a6 6 0 0 1 6-6h188a6 6 0 0 1 6 6v51.33a6 6 0 0 1-6 6H146a6 6 0 0 1-6-6z" fill="none"/>
    <use xlink:href="#p" transform="translate(199.383 1056.278)"/>
    <path d="M1000 101v900.5" stroke="#5865f2" stroke-width="2" fill="none"/>
    <path d="M1001 101.03h-2V100h2z" stroke="#5865f2" stroke-width=".05" fill="#5865f2"/>
    <path d="m1000 1016.76-4.63-14.26h9.26z" stroke="#5865f2" stroke-width="2" fill="#5865f2"/>
    <path d="M1000 101v153a6 6 0 0 1-6 6H820" stroke="#5865f2" stroke-width="2" fill="none"/>
    <path d="M1001 101.03h-2V100h2z" stroke="#5865f2" stroke-width=".05" fill="#5865f2"/>
    <path d="m804.74 260 14.26-4.63v9.26z" stroke="#5865f2" stroke-width="2" fill="#5865f2"/>
    <path d="M1000 101v153a6 6 0 0 0 6 6h174" stroke="#5865f2" stroke-width="2" fill="none"/>
    <path d="M1001 101.03h-2V100h2z" stroke="#5865f2" stroke-width=".05" fill="#5865f2"/>
    <path d="m1195.26 260-14.26 4.63v-9.26z" stroke="#5865f2" stroke-width="2" fill="#5865f2"/>
    <path d="M1000 101v463.7a6 6 0 0 1-6 6H820" stroke="#fff" stroke-width="2" fill="none"/>
    <path d="M1001 101.03h-2V100h2z" stroke="#fff" stroke-width=".05" fill="#fff"/>
    <path d="m804.74 570.7 14.26-4.63v9.27z" stroke="#fff" stroke-width="2" fill="#fff"/>
    <path d="M1000 101v463.7a6 6 0 0 0 6 6h174" stroke="#fff" stroke-width="2" fill="none"/>
    <path d="M1001 101.03h-2V100h2z" stroke="#fff" stroke-width=".05" fill="#fff"/>
    <path d="m1195.26 570.7-14.26 4.64v-9.27z" stroke="#fff" stroke-width="2" fill="#fff"/>
    <path d="M1000 101v783.7a6 6 0 0 1-6 6H820" stroke="#5865f2" stroke-width="2" fill="none"/>
    <path d="M1001 101.03h-2V100h2z" stroke="#5865f2" stroke-width=".05" fill="#5865f2"/>
    <path d="m804.74 890.7 14.26-4.63v9.27z" stroke="#5865f2" stroke-width="2" fill="#5865f2"/>
    <path d="M1000 101v783.7a6 6 0 0 0 6 6h174" stroke="#5865f2" stroke-width="2" fill="none"/>
    <path d="M1001 101.03h-2V100h2z" stroke="#5865f2" stroke-width=".05" fill="#5865f2"/>
    <path d="m1195.26 890.7-14.26 4.64v-9.27z" stroke="#5865f2" stroke-width="2" fill="#5865f2"/>
    <path d="M1260 206a6 6 0 0 1 6-6h268a6 6 0 0 1 6 6v28a6 6 0 0 1-6 6h-268a6 6 0 0 1-6-6z" stroke="#5865f2" stroke-width="3" fill="none"/>
    <use xlink:href="#q" transform="translate(1355.586 224.715)"/>
    <path d="M1260 246a6 6 0 0 1 6-6h268a6 6 0 0 1 6 6v28a6 6 0 0 1-6 6h-268a6 6 0 0 1-6-6z" stroke="#5865f2" stroke-width="3" fill="none"/>
    <use xlink:href="#r" transform="translate(1364.26 264.715)"/>
    <path d="M1260 286a6 6 0 0 1 6-6h268a6 6 0 0 1 6 6v28a6 6 0 0 1-6 6h-268a6 6 0 0 1-6-6z" stroke="#5865f2" stroke-width="3" fill="none"/>
    <use xlink:href="#s" transform="translate(1371.019 304.715)"/>
    <path d="M500 206a6 6 0 0 1 6-6h268a6 6 0 0 1 6 6v28a6 6 0 0 1-6 6H506a6 6 0 0 1-6-6z" stroke="#5865f2" stroke-width="3" fill="none"/>
    <use xlink:href="#t" transform="translate(578.95 224.715)"/>
    <use xlink:href="#u" transform="translate(628.272 224.715)"/>
    <path d="M500 246a6 6 0 0 1 6-6h268a6 6 0 0 1 6 6v28a6 6 0 0 1-6 6H506a6 6 0 0 1-6-6z" stroke="#5865f2" stroke-width="3" fill="none"/>
    <use xlink:href="#v" transform="translate(609.784 264.715)"/>
    <path d="M500 286a6 6 0 0 1 6-6h268a6 6 0 0 1 6 6v28a6 6 0 0 1-6 6H506a6 6 0 0 1-6-6z" stroke="#5865f2" stroke-width="3" fill="none"/>
    <use xlink:href="#w" transform="translate(588.24 304.715)"/>
    <path d="M500 516.7a6 6 0 0 1 6-6h268a6 6 0 0 1 6 6v28a6 6 0 0 1-6 6H506a6 6 0 0 1-6-6z" stroke="#5865f2" stroke-width="3" fill="none"/>
    <use xlink:href="#x" transform="translate(595 535.424)"/>
    <path d="M500 556.7a6 6 0 0 1 6-6h268a6 6 0 0 1 6 6v28a6 6 0 0 1-6 6H506a6 6 0 0 1-6-6z" stroke="#5865f2" stroke-width="3" fill="none"/>
    <use xlink:href="#y" transform="translate(616.574 575.424)"/>
    <path d="M500 596.7a6 6 0 0 1 6-6h268a6 6 0 0 1 6 6v28a6 6 0 0 1-6 6H506a6 6 0 0 1-6-6z" stroke="#5865f2" stroke-width="3" fill="none"/>
    <use xlink:href="#z" transform="translate(580.833 615.424)"/>
    <path d="M1260 536.7a6 6 0 0 1 6-6h268a6 6 0 0 1 6 6v28a6 6 0 0 1-6 6h-268a6 6 0 0 1-6-6z" stroke="#5865f2" stroke-width="3" fill="none"/>
    <use xlink:href="#A" transform="translate(1375.926 555.424)"/>
    <path d="M1260 576.7a6 6 0 0 1 6-6h268a6 6 0 0 1 6 6v28a6 6 0 0 1-6 6h-268a6 6 0 0 1-6-6z" stroke="#5865f2" stroke-width="3" fill="none"/>
    <use xlink:href="#B" transform="translate(1368.55 595.424)"/>
    <path d="M500 806a6 6 0 0 1 6-6h268a6 6 0 0 1 6 6v28a6 6 0 0 1-6 6H506a6 6 0 0 1-6-6z" stroke="#5865f2" stroke-width="3" fill="none"/>
    <use xlink:href="#C" transform="translate(606.111 824.715)"/>
    <path d="M500 846a6 6 0 0 1 6-6h268a6 6 0 0 1 6 6v28a6 6 0 0 1-6 6H506a6 6 0 0 1-6-6z" stroke="#5865f2" stroke-width="3" fill="none"/>
    <use xlink:href="#D" transform="translate(576.481 864.715)"/>
    <use xlink:href="#E" transform="translate(628.21 864.715)"/>
    <path d="M500 886a6 6 0 0 1 6-6h268a6 6 0 0 1 6 6v28a6 6 0 0 1-6 6H506a6 6 0 0 1-6-6z" stroke="#5865f2" stroke-width="3" fill="none"/>
    <use xlink:href="#F" transform="translate(589.475 904.715)"/>
    <use xlink:href="#G" transform="translate(633.858 904.715)"/>
    <path d="M500 966a6 6 0 0 1 6-6h268a6 6 0 0 1 6 6v28a6 6 0 0 1-6 6H506a6 6 0 0 1-6-6z" stroke="#5865f2" stroke-width="3" fill="none"/>
    <use xlink:href="#H" transform="translate(540.34 984.715)"/>
    <use xlink:href="#I" transform="translate(638.488 984.715)"/>
    <path d="M500 926a6 6 0 0 1 6-6h268a6 6 0 0 1 6 6v28a6 6 0 0 1-6 6H506a6 6 0 0 1-6-6z" stroke="#5865f2" stroke-width="3" fill="none"/>
    <use xlink:href="#J" transform="translate(591.296 944.715)"/>
    <path d="M1260 797.67a6 6 0 0 1 6-6h268a6 6 0 0 1 6 6v28a6 6 0 0 1-6 6h-268a6 6 0 0 1-6-6z" stroke="#5865f2" stroke-width="3" fill="none"/>
    <use xlink:href="#K" transform="translate(1372.963 816.382)"/>
    <path d="M1260 837.67a6 6 0 0 1 6-6h268a6 6 0 0 1 6 6v28a6 6 0 0 1-6 6h-268a6 6 0 0 1-6-6z" stroke="#5865f2" stroke-width="3" fill="none"/>
    <use xlink:href="#L" transform="translate(1346.944 856.382)"/>
    <path d="M1260 877.67a6 6 0 0 1 6-6h268a6 6 0 0 1 6 6v28a6 6 0 0 1-6 6h-268a6 6 0 0 1-6-6z" stroke="#5865f2" stroke-width="3" fill="none"/>
    <use xlink:href="#M" transform="translate(1332.16 896.382)"/>
    <path d="M1260 917.67a6 6 0 0 1 6-6h268a6 6 0 0 1 6 6v28a6 6 0 0 1-6 6h-268a6 6 0 0 1-6-6z" stroke="#5865f2" stroke-width="3" fill="none"/>
    <use xlink:href="#N" transform="translate(1371.667 936.382)"/>
    <path d="M1260 957.67a6 6 0 0 1 6-6h268a6 6 0 0 1 6 6v28a6 6 0 0 1-6 6h-268a6 6 0 0 1-6-6z" stroke="#5865f2" stroke-width="3" fill="none"/>
    <use xlink:href="#O" transform="translate(1377.778 976.382)"/>
    <path d="M1260 997.67a6 6 0 0 1 6-6h268a6 6 0 0 1 6 6v28a6 6 0 0 1-6 6h-268a6 6 0 0 1-6-6z" stroke="#5865f2" stroke-width="3" fill="none"/>
    <use xlink:href="#P" transform="translate(1346.42 1016.382)"/>
    <path d="M880 1146.96a6 6 0 0 1 6-6h268a6 6 0 0 1 6 6v28a6 6 0 0 1-6 6H886a6 6 0 0 1-6-6z" stroke="#5865f2" stroke-width="3" fill="none"/>
    <use xlink:href="#Q" transform="translate(947.685 1165.673)"/>
    <use xlink:href="#R" transform="translate(1002.253 1165.673)"/>
    <use xlink:href="#S" transform="translate(1045.463 1165.673)"/>
    <path d="M120 1126a6 6 0 0 1 6-6h268a6 6 0 0 1 6 6v28a6 6 0 0 1-6 6H126a6 6 0 0 1-6-6z" stroke="#f25858" stroke-width="3" fill="none"/>
    <use xlink:href="#T" transform="translate(200.185 1144.715)"/>
    <use xlink:href="#U" transform="translate(273.025 1144.715)"/>
    <path d="M120 1166a6 6 0 0 1 6-6h268a6 6 0 0 1 6 6v28a6 6 0 0 1-6 6H126a6 6 0 0 1-6-6z" stroke="#f25858" stroke-width="3" fill="none"/>
    <use xlink:href="#V" transform="translate(185.432 1184.715)"/>
    <use xlink:href="#W" transform="translate(277.901 1184.715)"/>
    <path d="M120 1206a6 6 0 0 1 6-6h268a6 6 0 0 1 6 6v28a6 6 0 0 1-6 6H126a6 6 0 0 1-6-6z" stroke="#f25858" stroke-width="3" fill="none"/>
    <use xlink:href="#X" transform="translate(153.364 1224.715)"/>
    <use xlink:href="#Y" transform="translate(272.932 1224.715)"/>
    <path d="M799 60h-20.48m-20.48 0h-40.97m-20.48 0h-40.97m-20.48 0h-40.97m-20.48 0h-40.96m-20.48 0H471.3m-20.5 0h-40.95m-20.48 0H348.4m-20.47 0h-40.97m-20.48 0H246l-.94.07-.9.22-.88.35-.8.5-.72.6-.6.72-.5.8-.37.88-.23.9-.07.95v19.7m0 19.7v39.4m0 19.7v39.4m0 19.7V263m0 19.7v39.42m0 19.7v39.4m0 19.7v39.4m0 19.7v39.4m0 19.7v39.4m0 19.72v39.4m0 19.7v39.4m0 19.7v39.4m0 19.7v39.4m0 19.7v39.4m0 19.72v39.4m0 19.7v39.4m0 19.7v19.7" stroke="#f25858" stroke-width="2" fill="none"/>
    <path d="M800 61h-1.03v-2H800z" stroke="#f25858" stroke-width=".05" fill="#f25858"/>
    <path d="m240 1026.93-4.63-14.27h9.26z" stroke="#f25858" stroke-width="2" fill="#f25858"/>
    <defs>
      <path fill="#fff" d="M210 0H11v-37l134-170H24v-41h178v36L68-41h142V0" id="Z"/>
      <path fill="#fff" d="M185-48c-13 30-37 53-82 52C43 2 14-33 14-96s30-98 90-98c62 0 83 45 84 108H66c0 31 8 55 39 56 18 0 30-7 34-22zm-45-69c5-46-57-63-70-21-2 6-4 13-4 21h74" id="aa"/>
      <path fill="#fff" d="M135-194c53 0 70 44 70 98 0 56-19 98-73 100-31 1-45-17-59-34 3 33 2 69 2 105H25l-1-265h48c2 10 0 23 3 31 11-24 29-35 60-35zM114-30c33 0 39-31 40-66 0-38-9-64-40-64-56 0-55 130 0 130" id="ab"/>
      <path fill="#fff" d="M25 0v-261h50V0H25" id="ac"/>
      <path fill="#fff" d="M25-224v-37h50v37H25zM25 0v-190h50V0H25" id="ad"/>
      <path fill="#fff" d="M135-194c87-1 58 113 63 194h-50c-7-57 23-157-34-157-59 0-34 97-39 157H25l-1-190h47c2 12-1 28 3 38 12-26 28-41 61-42" id="ae"/>
      <path fill="#fff" d="M67-125c0 54 23 88 75 88 28 0 53-7 68-21v-34h-60v-39h108v91C232-14 192 4 140 4 58 4 20-42 15-125 8-236 126-280 215-234c19 10 29 26 37 47l-47 15c-11-23-29-39-63-39-53 1-75 33-75 86" id="af"/>
      <path fill="#fff" d="M85 4C-2 5 27-109 22-190h50c7 57-23 150 33 157 60-5 35-97 40-157h50l1 190h-47c-2-12 1-28-3-38-12 25-28 42-61 42" id="ag"/>
      <path fill="#fff" d="M88-194c31-1 46 15 58 34l-1-101h50l1 261h-48c-2-10 0-23-3-31C134-8 116 4 84 4 32 4 16-41 15-95c0-56 19-97 73-99zm17 164c33 0 40-30 41-66 1-37-9-64-41-64s-38 30-39 65c0 43 13 65 39 65" id="ah"/>
      <path fill="#fff" d="M168-19C124 19 11 11 16-68c3-43 29-60 59-75-25-44-12-111 53-106 37 3 64 15 64 52 0 43-40 52-69 68 12 22 27 41 43 59 14-19 21-38 28-64l37 13c-8 29-19 52-34 74 12 10 32 16 52 10v35c-28 11-65-2-81-17zm-58-139c19-9 43-14 43-39 0-14-10-22-25-22-34 0-33 41-18 61zM60-68c-3 40 55 47 79 25-18-20-34-42-48-67-18 8-30 20-31 42" id="ce"/>
      <path fill="#fff" d="M136-208V0H84v-208H4v-40h212v40h-80" id="ai"/>
      <path fill="#fff" d="M135-150c-39-12-60 13-60 57V0H25l-1-190h47c2 13-1 29 3 40 6-28 27-53 61-41v41" id="aj"/>
      <path fill="#fff" d="M190-63c-7 42-38 67-86 67-59 0-84-38-90-98-12-110 154-137 174-36l-49 2c-2-19-15-32-35-32-30 0-35 28-38 64-6 74 65 87 74 30" id="ak"/>
      <path fill="#fff" d="M147 0 96-86 75-71V0H25v-261h50v150l67-79h53l-66 74L201 0h-54" id="al"/>
      <path fill="#fff" d="M137-138c1-29-70-34-71-4 15 46 118 7 119 86 1 83-164 76-172 9l43-7c4 19 20 25 44 25 33 8 57-30 24-41C81-84 22-81 20-136c-2-80 154-74 161-7" id="am"/>
      <path fill="#fff" d="M238-179c0 84-86 86-175 82L45 0H11l48-248c82 0 179-12 179 69zm-34 1c0-53-64-42-116-43l-19 98c63 0 135 9 135-55" id="an"/>
      <path fill="#fff" d="m6 0 50-261h32L37 0H6" id="ao"/>
      <path fill="#fff" d="M67 3c-93-2-31-127-26-193h32L48-50c-3 39 53 32 70 12 30-34 30-101 43-152h32L157 0h-30c1-10 6-24 4-33-14 20-29 37-64 36" id="ap"/>
      <path fill="#fff" d="M103-194c29 0 47 14 56 36 2-11 5-23 8-32h30L160-5C157 61 82 97 21 62 9 55 4 45 1 30l28-7c7 42 83 31 92-3 4-16 9-38 13-55-13 20-29 36-62 36-40 0-60-25-60-64 0-71 23-131 91-131zm4 24c-53 0-58 54-61 104-2 27 10 44 36 44 49 0 65-50 67-102 1-29-15-46-42-46" id="aq"/>
      <path fill="#fff" d="m50-231 6-30h32l-6 30H50zM6 0l37-190h31L37 0H6" id="ar"/>
      <path fill="#fff" d="M67-158c22-48 132-52 116 29L158 0h-32l25-140c3-38-53-32-70-12C52-117 51-52 38 0H6l36-190h30" id="as"/>
      <path fill="#fff" d="M125-24c46 0 70-25 89-51l25 16C214-24 183 4 123 4 8 4-5-146 60-208c32-50 158-61 191-5 5 7 9 14 11 22l-32 10c-9-28-33-43-69-43-74 0-108 51-108 125 0 46 24 75 72 75" id="at"/>
      <path fill="#fff" d="M165-48c-4 18 1 34 23 27l-3 20c-29 8-62 0-52-35h-2C116-14 99 4 63 4 30 4 8-16 8-49c0-68 71-67 138-67 10-26 0-56-31-54-26 1-42 9-47 31l-32-5c8-67 160-71 144 15-5 28-9 54-15 81zM42-50c3 52 80 24 89-6 7-12 7-24 11-38-47 1-103-4-100 44" id="au"/>
      <path fill="#fff" d="M51-54c-9 22 5 41 31 30L79-1C43 14 10-4 19-52l22-115H19l5-23h22l19-43h21l-9 43h35l-4 23H73" id="av"/>
      <path fill="#fff" d="M111-194c62-3 86 47 72 106H45c-7 38 6 69 45 68 27-1 43-14 53-32l24 11C152-15 129 4 87 4 38 3 12-23 12-71c0-70 32-119 99-123zm44 81c14-66-71-72-95-28-4 8-8 17-11 28h106" id="aw"/>
      <path fill="#fff" d="M30-147c31-64 166-65 159 27C183-49 158 1 86 4 9 8 1-88 30-147zM88-20c53 0 68-48 68-100 0-31-11-51-44-50-52 1-68 46-68 97 0 32 13 53 44 53" id="ax"/>
      <path fill="#fff" d="M66-151c12-25 30-51 66-40l-6 26C45-176 58-65 38 0H6l36-190h30" id="ay"/>
      <path fill="#fff" d="M55-144c13 50 104 24 104 88C159 21 15 23 1-39l26-10c6 40 102 42 102-4-13-50-104-23-104-87 0-71 143-71 148-8l-29 4c-5-35-85-37-89 0" id="az"/>
      <path fill="#5865f2" d="m230 0 2-204L168 0h-37L68-204 70 0H24v-248h70l56 185 57-185h69V0h-46" id="aA"/>
      <path fill="#5865f2" d="M110-194c64 0 96 36 96 99 0 64-35 99-97 99-61 0-95-36-95-99 0-62 34-99 96-99zm-1 164c35 0 45-28 45-65 0-40-10-65-43-65-34 0-45 26-45 65 0 36 10 65 43 65" id="aB"/>
      <path fill="#5865f2" d="M88-194c31-1 46 15 58 34l-1-101h50l1 261h-48c-2-10 0-23-3-31C134-8 116 4 84 4 32 4 16-41 15-95c0-56 19-97 73-99zm17 164c33 0 40-30 41-66 1-37-9-64-41-64s-38 30-39 65c0 43 13 65 39 65" id="aC"/>
      <path fill="#5865f2" d="M185-48c-13 30-37 53-82 52C43 2 14-33 14-96s30-98 90-98c62 0 83 45 84 108H66c0 31 8 55 39 56 18 0 30-7 34-22zm-45-69c5-46-57-63-70-21-2 6-4 13-4 21h74" id="aD"/>
      <path fill="#5865f2" d="M135-150c-39-12-60 13-60 57V0H25l-1-190h47c2 13-1 29 3 40 6-28 27-53 61-41v41" id="aE"/>
      <path fill="#5865f2" d="M133-34C117-15 103 5 69 4 32 3 11-16 11-54c-1-60 55-63 116-61 1-26-3-47-28-47-18 1-26 9-28 27l-52-2c7-38 36-58 82-57s74 22 75 68l1 82c-1 14 12 18 25 15v27c-30 8-71 5-69-32zm-48 3c29 0 43-24 42-57-32 0-66-3-65 30 0 17 8 27 23 27" id="aF"/>
      <path fill="#5865f2" d="M115-3C79 11 28 4 28-45v-112H4v-33h27l15-45h31v45h36v33H77v99c-1 23 16 31 38 25v30" id="aG"/>
      <path fill="#5865f2" d="M25-224v-37h50v37H25zM25 0v-190h50V0H25" id="aH"/>
      <path fill="#5865f2" d="M135-194c87-1 58 113 63 194h-50c-7-57 23-157-34-157-59 0-34 97-39 157H25l-1-190h47c2 12-1 28 3 38 12-26 28-41 61-42" id="aI"/>
      <path fill="#5865f2" d="m199 0-22-63H83L61 0H9l90-248h61L250 0h-51zm-33-102-36-108c-10 38-24 72-36 108h72" id="aJ"/>
      <path fill="#5865f2" d="M85 4C-2 5 27-109 22-190h50c7 57-23 150 33 157 60-5 35-97 40-157h50l1 190h-47c-2-12 1-28-3-38-12 25-28 42-61 42" id="aK"/>
      <path fill="#5865f2" d="M220-157c-53 9-28 100-34 157h-49v-107c1-27-5-49-29-50C55-147 81-57 75 0H25l-1-190h47c2 12-1 28 3 38 10-53 101-56 108 0 13-22 24-43 59-42 82 1 51 116 57 194h-49v-107c-1-25-5-48-29-50" id="aL"/>
      <path fill="#5865f2" d="M169-182c-1-43-94-46-97-3 18 66 151 10 154 114 3 95-165 93-204 36-6-8-10-19-12-30l50-8c3 46 112 56 116 5-17-69-150-10-154-114-4-87 153-88 188-35 5 8 8 18 10 28" id="aM"/>
      <path fill="#5865f2" d="M123 10C108 53 80 86 19 72V37c35 8 53-11 59-39L3-190h52l48 148c12-52 28-100 44-148h51" id="aN"/>
      <path fill="#5865f2" d="M137-138c1-29-70-34-71-4 15 46 118 7 119 86 1 83-164 76-172 9l43-7c4 19 20 25 44 25 33 8 57-30 24-41C81-84 22-81 20-136c-2-80 154-74 161-7" id="aO"/>
      <path fill="#5865f2" d="M24 0v-248h195v40H76v63h132v40H76v65h150V0H24" id="aP"/>
      <path fill="#5865f2" d="M128 0H69L1-190h53L99-40l48-150h52" id="aQ"/>
      <path fill="#5865f2" d="M238-95c0 69-44 99-111 99C63 4 22-25 22-93v-155h51v151c-1 38 19 59 55 60 90 1 49-130 58-211h52v153" id="aR"/>
      <path fill="#5865f2" d="M25 0v-261h50V0H25" id="aS"/>
      <path fill="#5865f2" d="M14-72v-43h91v43H14" id="cf"/>
      <path fill="#5865f2" d="M135-194c53 0 70 44 70 98 0 56-19 98-73 100-31 1-45-17-59-34 3 33 2 69 2 105H25l-1-265h48c2 10 0 23 3 31 11-24 29-35 60-35zM114-30c33 0 39-31 40-66 0-38-9-64-40-64-56 0-55 130 0 130" id="aT"/>
      <path fill="#5865f2" d="M190-63c-7 42-38 67-86 67-59 0-84-38-90-98-12-110 154-137 174-36l-49 2c-2-19-15-32-35-32-30 0-35 28-38 64-6 74 65 87 74 30" id="aU"/>
      <path fill="#5865f2" d="M121-226c-27-7-43 5-38 36h38v33H83V0H34v-157H6v-33h28c-9-59 32-81 87-68v32" id="aV"/>
      <path fill="#5865f2" d="M67-125c0 53 21 87 73 88 37 1 54-22 65-47l45 17C233-25 199 4 140 4 58 4 20-42 15-125 8-235 124-281 211-232c18 10 29 29 36 50l-46 12c-8-25-30-41-62-41-52 0-71 34-72 86" id="aW"/>
      <path fill="#5865f2" d="M195-6C206 82 75 100 31 46c-4-6-6-13-8-21l49-6c3 16 16 24 34 25 40 0 42-37 40-79-11 22-30 35-61 35-53 0-70-43-70-97 0-56 18-96 73-97 30 0 46 14 59 34l2-30h47zm-90-29c32 0 41-27 41-63 0-35-9-62-40-62-32 0-39 29-40 63 0 36 9 62 39 62" id="aX"/>
      <path fill="#f25858" d="M238-95c0 69-44 99-111 99C63 4 22-25 22-93v-155h51v151c-1 38 19 59 55 60 90 1 49-130 58-211h52v153" id="aY"/>
      <path fill="#f25858" d="M135-194c87-1 58 113 63 194h-50c-7-57 23-157-34-157-59 0-34 97-39 157H25l-1-190h47c2 12-1 28 3 38 12-26 28-41 61-42" id="aZ"/>
      <path fill="#f25858" d="M85 4C-2 5 27-109 22-190h50c7 57-23 150 33 157 60-5 35-97 40-157h50l1 190h-47c-2-12 1-28-3-38-12 25-28 42-61 42" id="ba"/>
      <path fill="#f25858" d="M137-138c1-29-70-34-71-4 15 46 118 7 119 86 1 83-164 76-172 9l43-7c4 19 20 25 44 25 33 8 57-30 24-41C81-84 22-81 20-136c-2-80 154-74 161-7" id="bb"/>
      <path fill="#f25858" d="M185-48c-13 30-37 53-82 52C43 2 14-33 14-96s30-98 90-98c62 0 83 45 84 108H66c0 31 8 55 39 56 18 0 30-7 34-22zm-45-69c5-46-57-63-70-21-2 6-4 13-4 21h74" id="bc"/>
      <path fill="#f25858" d="M88-194c31-1 46 15 58 34l-1-101h50l1 261h-48c-2-10 0-23-3-31C134-8 116 4 84 4 32 4 16-41 15-95c0-56 19-97 73-99zm17 164c33 0 40-30 41-66 1-37-9-64-41-64s-38 30-39 65c0 43 13 65 39 65" id="bd"/>
      <path fill="#5865f2" d="m205 0-28-72H64L36 0H1l101-248h38L239 0h-34zm-38-99-47-123c-12 45-31 82-46 123h93" id="be"/>
      <path fill="#5865f2" d="M84 4C-5 8 30-112 23-190h32v120c0 31 7 50 39 49 72-2 45-101 50-169h31l1 190h-30c-1-10 1-25-2-33-11 22-28 36-60 37" id="bf"/>
      <path fill="#5865f2" d="M59-47c-2 24 18 29 38 22v24C64 9 27 4 27-40v-127H5v-23h24l9-43h21v43h35v23H59v120" id="bg"/>
      <path fill="#5865f2" d="M100-194c62-1 85 37 85 99 1 63-27 99-86 99S16-35 15-95c0-66 28-99 85-99zM99-20c44 1 53-31 53-75 0-43-8-75-51-75s-53 32-53 75 10 74 51 75" id="bh"/>
      <path fill="#5865f2" d="M210-169c-67 3-38 105-44 169h-31v-121c0-29-5-50-35-48C34-165 62-65 56 0H25l-1-190h30c1 10-1 24 2 32 10-44 99-50 107 0 11-21 27-35 58-36 85-2 47 119 55 194h-31v-121c0-29-5-49-35-48" id="bi"/>
      <path fill="#5865f2" d="M85-194c31 0 48 13 60 33l-1-100h32l1 261h-30c-2-10 0-23-3-31C134-8 116 4 85 4 32 4 16-35 15-94c0-66 23-100 70-100zm9 24c-40 0-46 34-46 75 0 40 6 74 45 74 42 0 51-32 51-76 0-42-9-74-50-73" id="bj"/>
      <path fill="#5865f2" d="M212-179c-10-28-35-45-73-45-59 0-87 40-87 99 0 60 29 101 89 101 43 0 62-24 78-52l27 14C228-24 195 4 139 4 59 4 22-46 18-125c-6-104 99-153 187-111 19 9 31 26 39 46" id="bk"/>
      <path fill="#5865f2" d="M100-194c63 0 86 42 84 106H49c0 40 14 67 53 68 26 1 43-12 49-29l28 8c-11 28-37 45-77 45C44 4 14-33 15-96c1-61 26-98 85-98zm52 81c6-60-76-77-97-28-3 7-6 17-6 28h103" id="bl"/>
      <path fill="#5865f2" d="M117-194c89-4 53 116 60 194h-32v-121c0-31-8-49-39-48C34-167 62-67 57 0H25l-1-190h30c1 10-1 24 2 32 11-22 29-35 61-36" id="bm"/>
      <path fill="#5865f2" d="M135-143c-3-34-86-38-87 0 15 53 115 12 119 90S17 21 10-45l28-5c4 36 97 45 98 0-10-56-113-15-118-90-4-57 82-63 122-42 12 7 21 19 24 35" id="bn"/>
      <path fill="#5865f2" d="M114-163C36-179 61-72 57 0H25l-1-190h30c1 12-1 29 2 39 6-27 23-49 58-41v29" id="bo"/>
      <path fill="#5865f2" d="M185-189c-5-48-123-54-124 2 14 75 158 14 163 119 3 78-121 87-175 55-17-10-28-26-33-46l33-7c5 56 141 63 141-1 0-78-155-14-162-118-5-82 145-84 179-34 5 7 8 16 11 25" id="bp"/>
      <path fill="#5865f2" d="M115-194c55 1 70 41 70 98S169 2 115 4C84 4 66-9 55-30l1 105H24l-1-265h31l2 30c10-21 28-34 59-34zm-8 174c40 0 45-34 45-75s-6-73-45-74c-42 0-51 32-51 76 0 43 10 73 51 73" id="bq"/>
      <path fill="#5865f2" d="M141-36C126-15 110 5 73 4 37 3 15-17 15-53c-1-64 63-63 125-63 3-35-9-54-41-54-24 1-41 7-42 31l-33-3c5-37 33-52 76-52 45 0 72 20 72 64v82c-1 20 7 32 28 27v20c-31 9-61-2-59-35zM48-53c0 20 12 33 32 33 41-3 63-29 60-74-43 2-92-5-92 41" id="br"/>
      <path fill="#5865f2" d="m240 0 2-218c-23 76-54 145-80 218h-23L58-218 59 0H30v-248h44l77 211c21-75 51-140 76-211h43V0h-30" id="bs"/>
      <path fill="#5865f2" d="M96-169c-40 0-48 33-48 73s9 75 48 75c24 0 41-14 43-38l32 2c-6 37-31 61-74 61-59 0-76-41-82-99-10-93 101-131 147-64 4 7 5 14 7 22l-32 3c-4-21-16-35-41-35" id="bt"/>
      <path fill="#5865f2" d="M24-231v-30h32v30H24zM24 0v-190h32V0H24" id="bu"/>
      <path fill="#5865f2" d="M24 0v-261h32V0H24" id="bv"/>
      <path fill="#5865f2" d="M206 0h-36l-40-164L89 0H53L-1-190h32L70-26l43-164h34l41 164 42-164h31" id="bw"/>
      <path fill="#5865f2" d="M127-220V0H93v-220H8v-28h204v28h-85" id="bx"/>
      <path fill="#5865f2" d="M177-190C167-65 218 103 67 71c-23-6-38-20-44-43l32-5c15 47 100 32 89-28v-30C133-14 115 1 83 1 29 1 15-40 15-95c0-56 16-97 71-98 29-1 48 16 59 35 1-10 0-23 2-32h30zM94-22c36 0 50-32 50-73 0-42-14-75-50-75-39 0-46 34-46 75s6 73 46 73" id="by"/>
      <path fill="#5865f2" d="M30-248c87 1 191-15 191 75 0 78-77 80-158 76V0H30v-248zm33 125c57 0 124 11 124-50 0-59-68-47-124-48v98" id="bz"/>
      <path fill="#5865f2" d="M106-169C34-169 62-67 57 0H25v-261h32l-1 103c12-21 28-36 61-36 89 0 53 116 60 194h-32v-121c2-32-8-49-39-48" id="bA"/>
      <path fill="#5865f2" d="M30 0v-248h33v221h125V0H30" id="bB"/>
      <path fill="#5865f2" d="M233-177c-1 41-23 64-60 70L243 0h-38l-65-103H63V0H30v-248c88 3 205-21 203 71zM63-129c60-2 137 13 137-47 0-61-80-42-137-45v92" id="bC"/>
      <path fill="#5865f2" d="M160-131c35 5 61 23 61 61C221 17 115-2 30 0v-248c76 3 177-17 177 60 0 33-19 50-47 57zm-97-11c50-1 110 9 110-42 0-47-63-36-110-37v79zm0 115c55-2 124 14 124-45 0-56-70-42-124-44v89" id="bD"/>
      <path fill="#5865f2" d="M101-234c-31-9-42 10-38 44h38v23H63V0H32v-167H5v-23h27c-7-52 17-82 69-68v24" id="bE"/>
      <path fill="#5865f2" d="M266 0h-40l-56-210L115 0H75L2-248h35L96-30l15-64 43-154h32l59 218 59-218h35" id="bF"/>
      <path fill="#5865f2" d="M115-194c53 0 69 39 70 98 0 66-23 100-70 100C84 3 66-7 56-30L54 0H23l1-261h32v101c10-23 28-34 59-34zm-8 174c40 0 45-34 45-75 0-40-5-75-45-74-42 0-51 32-51 76 0 43 10 73 51 73" id="bG"/>
      <path fill="#5865f2" d="M232-93c-1 65-40 97-104 97C67 4 28-28 28-90v-158h33c8 89-33 224 67 224 102 0 64-133 71-224h33v155" id="bH"/>
      <path fill="#5865f2" d="M179-190 93 31C79 59 56 82 12 73V49c39 6 53-20 64-50L1-190h34L92-34l54-156h33" id="bI"/>
      <path fill="#5865f2" d="M30-248c118-7 216 8 213 122C240-48 200 0 122 0H30v-248zM63-27c89 8 146-16 146-99s-60-101-146-95v194" id="bJ"/>
      <path fill="#f25858" d="M30 0v-248h33v221h125V0H30" id="bK"/>
      <path fill="#f25858" d="M100-194c62-1 85 37 85 99 1 63-27 99-86 99S16-35 15-95c0-66 28-99 85-99zM99-20c44 1 53-31 53-75 0-43-8-75-51-75s-53 32-53 75 10 74 51 75" id="bL"/>
      <path fill="#f25858" d="M96-169c-40 0-48 33-48 73s9 75 48 75c24 0 41-14 43-38l32 2c-6 37-31 61-74 61-59 0-76-41-82-99-10-93 101-131 147-64 4 7 5 14 7 22l-32 3c-4-21-16-35-41-35" id="bM"/>
      <path fill="#f25858" d="M141-36C126-15 110 5 73 4 37 3 15-17 15-53c-1-64 63-63 125-63 3-35-9-54-41-54-24 1-41 7-42 31l-33-3c5-37 33-52 76-52 45 0 72 20 72 64v82c-1 20 7 32 28 27v20c-31 9-61-2-59-35zM48-53c0 20 12 33 32 33 41-3 63-29 60-74-43 2-92-5-92 41" id="bN"/>
      <path fill="#f25858" d="M59-47c-2 24 18 29 38 22v24C64 9 27 4 27-40v-127H5v-23h24l9-43h21v43h35v23H59v120" id="bO"/>
      <path fill="#f25858" d="M100-194c63 0 86 42 84 106H49c0 40 14 67 53 68 26 1 43-12 49-29l28 8c-11 28-37 45-77 45C44 4 14-33 15-96c1-61 26-98 85-98zm52 81c6-60-76-77-97-28-3 7-6 17-6 28h103" id="bP"/>
      <path fill="#f25858" d="M232-93c-1 65-40 97-104 97C67 4 28-28 28-90v-158h33c8 89-33 224 67 224 102 0 64-133 71-224h33v155" id="bQ"/>
      <path fill="#f25858" d="M135-143c-3-34-86-38-87 0 15 53 115 12 119 90S17 21 10-45l28-5c4 36 97 45 98 0-10-56-113-15-118-90-4-57 82-63 122-42 12 7 21 19 24 35" id="bR"/>
      <path fill="#f25858" d="M114-163C36-179 61-72 57 0H25l-1-190h30c1 12-1 29 2 39 6-27 23-49 58-41v29" id="bS"/>
      <path fill="#f25858" d="M30-248c87 1 191-15 191 75 0 78-77 80-158 76V0H30v-248zm33 125c57 0 124 11 124-50 0-59-68-47-124-48v98" id="bT"/>
      <path fill="#f25858" d="M24-231v-30h32v30H24zM24 0v-190h32V0H24" id="bU"/>
      <path fill="#f25858" d="M117-194c89-4 53 116 60 194h-32v-121c0-31-8-49-39-48C34-167 62-67 57 0H25l-1-190h30c1 10-1 24 2 32 11-22 29-35 61-36" id="bV"/>
      <path fill="#f25858" d="M177-190C167-65 218 103 67 71c-23-6-38-20-44-43l32-5c15 47 100 32 89-28v-30C133-14 115 1 83 1 29 1 15-40 15-95c0-56 16-97 71-98 29-1 48 16 59 35 1-10 0-23 2-32h30zM94-22c36 0 50-32 50-73 0-42-14-75-50-75-39 0-46 34-46 75s6 73 46 73" id="bW"/>
      <path fill="#f25858" d="M115-194c53 0 69 39 70 98 0 66-23 100-70 100C84 3 66-7 56-30L54 0H23l1-261h32v101c10-23 28-34 59-34zm-8 174c40 0 45-34 45-75 0-40-5-75-45-74-42 0-51 32-51 76 0 43 10 73 51 73" id="bX"/>
      <path fill="#f25858" d="M24 0v-261h32V0H24" id="bY"/>
      <path fill="#f25858" d="M233-177c-1 41-23 64-60 70L243 0h-38l-65-103H63V0H30v-248c88 3 205-21 203 71zM63-129c60-2 137 13 137-47 0-61-80-42-137-45v92" id="bZ"/>
      <path fill="#f25858" d="M212-179c-10-28-35-45-73-45-59 0-87 40-87 99 0 60 29 101 89 101 43 0 62-24 78-52l27 14C228-24 195 4 139 4 59 4 22-46 18-125c-6-104 99-153 187-111 19 9 31 26 39 46" id="ca"/>
      <path fill="#f25858" d="M210-169c-67 3-38 105-44 169h-31v-121c0-29-5-50-35-48C34-165 62-65 56 0H25l-1-190h30c1 10-1 24 2 32 10-44 99-50 107 0 11-21 27-35 58-36 85-2 47 119 55 194h-31v-121c0-29-5-49-35-48" id="cb"/>
      <path fill="#f25858" d="M115-194c55 1 70 41 70 98S169 2 115 4C84 4 66-9 55-30l1 105H24l-1-265h31l2 30c10-21 28-34 59-34zm-8 174c40 0 45-34 45-75s-6-73-45-74c-42 0-51 32-51 76 0 43 10 73 51 73" id="cc"/>
      <path fill="#f25858" d="M106-169C34-169 62-67 57 0H25v-261h32l-1 103c12-21 28-36 61-36 89 0 53 116 60 194h-32v-121c2-32-8-49-39-48" id="cd"/>
      <g id="a">
        <use transform="rotate(.413) scale(.06173)" xlink:href="#Z"/>
        <use transform="translate(13.519) scale(.06173)" xlink:href="#aa"/>
        <use transform="translate(25.864) scale(.06173)" xlink:href="#ab"/>
        <use transform="translate(39.383) scale(.06173)" xlink:href="#ab"/>
        <use transform="translate(52.901) scale(.06173)" xlink:href="#aa"/>
        <use transform="translate(65.247) scale(.06173)" xlink:href="#ac"/>
        <use transform="translate(71.42) scale(.06173)" xlink:href="#ad"/>
        <use transform="translate(77.593) scale(.06173)" xlink:href="#ae"/>
      </g>
      <g id="b">
        <use transform="rotate(.413) scale(.06173)" xlink:href="#af"/>
        <use transform="translate(17.284) scale(.06173)" xlink:href="#ag"/>
        <use transform="translate(30.802) scale(.06173)" xlink:href="#ad"/>
        <use transform="translate(36.975) scale(.06173)" xlink:href="#ah"/>
        <use transform="translate(50.494) scale(.06173)" xlink:href="#aa"/>
      </g>
      <g id="d">
        <use transform="rotate(.413) scale(.06173)" xlink:href="#ai"/>
        <use transform="translate(12.284) scale(.06173)" xlink:href="#aj"/>
        <use transform="translate(20.926) scale(.06173)" xlink:href="#ad"/>
        <use transform="translate(27.099) scale(.06173)" xlink:href="#ak"/>
        <use transform="translate(39.444) scale(.06173)" xlink:href="#al"/>
        <use transform="translate(51.79) scale(.06173)" xlink:href="#am"/>
      </g>
      <g id="e">
        <use transform="rotate(.413) scale(.06173)" xlink:href="#an"/>
        <use transform="translate(14.815) scale(.06173)" xlink:href="#ao"/>
        <use transform="translate(19.691) scale(.06173)" xlink:href="#ap"/>
        <use transform="translate(32.037) scale(.06173)" xlink:href="#aq"/>
        <use transform="translate(44.383) scale(.06173)" xlink:href="#ar"/>
        <use transform="translate(49.26) scale(.06173)" xlink:href="#as"/>
      </g>
      <g id="f">
        <use transform="rotate(.413) scale(.06173)" xlink:href="#at"/>
        <use transform="translate(15.988) scale(.06173)" xlink:href="#au"/>
        <use transform="translate(28.333) scale(.06173)" xlink:href="#av"/>
        <use transform="translate(34.506) scale(.06173)" xlink:href="#aw"/>
        <use transform="translate(46.852) scale(.06173)" xlink:href="#aq"/>
        <use transform="translate(59.198) scale(.06173)" xlink:href="#ax"/>
        <use transform="translate(71.543) scale(.06173)" xlink:href="#ay"/>
        <use transform="translate(78.889) scale(.06173)" xlink:href="#ar"/>
        <use transform="translate(83.765) scale(.06173)" xlink:href="#aw"/>
        <use transform="translate(96.111) scale(.06173)" xlink:href="#az"/>
      </g>
      <g id="g">
        <use transform="rotate(.413) scale(.06173)" xlink:href="#aA"/>
        <use transform="translate(18.457) scale(.06173)" xlink:href="#aB"/>
        <use transform="translate(31.975) scale(.06173)" xlink:href="#aC"/>
        <use transform="translate(45.494) scale(.06173)" xlink:href="#aD"/>
        <use transform="translate(57.84) scale(.06173)" xlink:href="#aE"/>
        <use transform="translate(66.481) scale(.06173)" xlink:href="#aF"/>
        <use transform="translate(78.827) scale(.06173)" xlink:href="#aG"/>
        <use transform="translate(86.173) scale(.06173)" xlink:href="#aH"/>
        <use transform="translate(92.346) scale(.06173)" xlink:href="#aB"/>
        <use transform="translate(105.864) scale(.06173)" xlink:href="#aI"/>
      </g>
      <g id="h">
        <use transform="rotate(.413) scale(.06173)" xlink:href="#aJ"/>
        <use transform="translate(15.988) scale(.06173)" xlink:href="#aK"/>
        <use transform="translate(29.506) scale(.06173)" xlink:href="#aG"/>
        <use transform="translate(36.852) scale(.06173)" xlink:href="#aB"/>
        <use transform="translate(50.37) scale(.06173)" xlink:href="#aL"/>
        <use transform="translate(70.123) scale(.06173)" xlink:href="#aB"/>
        <use transform="translate(83.642) scale(.06173)" xlink:href="#aC"/>
        <use transform="translate(97.16) scale(.06173)" xlink:href="#aD"/>
        <use transform="translate(109.506) scale(.06173)" xlink:href="#aE"/>
        <use transform="translate(118.148) scale(.06173)" xlink:href="#aF"/>
        <use transform="translate(130.494) scale(.06173)" xlink:href="#aG"/>
        <use transform="translate(137.84) scale(.06173)" xlink:href="#aH"/>
        <use transform="translate(144.012) scale(.06173)" xlink:href="#aB"/>
        <use transform="translate(157.53) scale(.06173)" xlink:href="#aI"/>
      </g>
      <g id="i">
        <use transform="rotate(.413) scale(.06173)" xlink:href="#aM"/>
        <use transform="translate(14.815) scale(.06173)" xlink:href="#aN"/>
        <use transform="translate(27.16) scale(.06173)" xlink:href="#aO"/>
        <use transform="translate(39.506) scale(.06173)" xlink:href="#aG"/>
        <use transform="translate(46.852) scale(.06173)" xlink:href="#aD"/>
        <use transform="translate(59.198) scale(.06173)" xlink:href="#aL"/>
        <use transform="translate(78.95) scale(.06173)" xlink:href="#aO"/>
      </g>
      <g id="j">
        <use transform="rotate(.413) scale(.06173)" xlink:href="#aP"/>
        <use transform="translate(14.815) scale(.06173)" xlink:href="#aQ"/>
        <use transform="translate(27.16) scale(.06173)" xlink:href="#aD"/>
        <use transform="translate(39.506) scale(.06173)" xlink:href="#aI"/>
        <use transform="translate(53.025) scale(.06173)" xlink:href="#aG"/>
        <use transform="translate(60.37) scale(.06173)" xlink:href="#aO"/>
      </g>
      <g id="k">
        <use transform="rotate(.413) scale(.06173)" xlink:href="#aR"/>
        <use transform="translate(15.988) scale(.06173)" xlink:href="#aG"/>
        <use transform="translate(23.333) scale(.06173)" xlink:href="#aH"/>
        <use transform="translate(29.506) scale(.06173)" xlink:href="#aS"/>
        <use transform="translate(35.679) scale(.06173)" xlink:href="#aH"/>
        <use transform="translate(41.852) scale(.06173)" xlink:href="#aG"/>
        <use transform="translate(49.198) scale(.06173)" xlink:href="#aN"/>
      </g>
      <g id="m">
        <use transform="rotate(.413) scale(.06173)" xlink:href="#aM"/>
        <use transform="translate(14.815) scale(.06173)" xlink:href="#aT"/>
        <use transform="translate(28.333) scale(.06173)" xlink:href="#aD"/>
        <use transform="translate(40.679) scale(.06173)" xlink:href="#aU"/>
        <use transform="translate(53.025) scale(.06173)" xlink:href="#aH"/>
        <use transform="translate(59.198) scale(.06173)" xlink:href="#aV"/>
        <use transform="translate(66.543) scale(.06173)" xlink:href="#aH"/>
        <use transform="translate(72.716) scale(.06173)" xlink:href="#aU"/>
      </g>
      <g id="n">
        <use transform="rotate(.413) scale(.06173)" xlink:href="#aW"/>
        <use transform="translate(15.988) scale(.06173)" xlink:href="#aB"/>
        <use transform="translate(29.506) scale(.06173)" xlink:href="#aL"/>
        <use transform="translate(49.26) scale(.06173)" xlink:href="#aL"/>
        <use transform="translate(69.012) scale(.06173)" xlink:href="#aB"/>
        <use transform="translate(82.53) scale(.06173)" xlink:href="#aI"/>
      </g>
      <g id="o">
        <use transform="rotate(.413) scale(.06173)" xlink:href="#aM"/>
        <use transform="translate(14.815) scale(.06173)" xlink:href="#aD"/>
        <use transform="translate(27.16) scale(.06173)" xlink:href="#aG"/>
        <use transform="translate(34.506) scale(.06173)" xlink:href="#aG"/>
        <use transform="translate(41.852) scale(.06173)" xlink:href="#aH"/>
        <use transform="translate(48.025) scale(.06173)" xlink:href="#aI"/>
        <use transform="translate(61.543) scale(.06173)" xlink:href="#aX"/>
        <use transform="translate(75.062) scale(.06173)" xlink:href="#aO"/>
      </g>
      <g id="p">
        <use transform="rotate(.413) scale(.06173)" xlink:href="#aY"/>
        <use transform="translate(15.988) scale(.06173)" xlink:href="#aZ"/>
        <use transform="translate(29.506) scale(.06173)" xlink:href="#ba"/>
        <use transform="translate(43.025) scale(.06173)" xlink:href="#bb"/>
        <use transform="translate(55.37) scale(.06173)" xlink:href="#bc"/>
        <use transform="translate(67.716) scale(.06173)" xlink:href="#bd"/>
      </g>
      <g id="q">
        <use transform="rotate(.413) scale(.06173)" xlink:href="#be"/>
        <use transform="translate(14.815) scale(.06173)" xlink:href="#bf"/>
        <use transform="translate(27.16) scale(.06173)" xlink:href="#bg"/>
        <use transform="translate(33.333) scale(.06173)" xlink:href="#bh"/>
        <use transform="translate(45.679) scale(.06173)" xlink:href="#bi"/>
        <use transform="translate(64.136) scale(.06173)" xlink:href="#bh"/>
        <use transform="translate(76.481) scale(.06173)" xlink:href="#bj"/>
      </g>
      <g id="r">
        <use transform="rotate(.413) scale(.06173)" xlink:href="#bk"/>
        <use transform="translate(15.988) scale(.06173)" xlink:href="#bl"/>
        <use transform="translate(28.333) scale(.06173)" xlink:href="#bm"/>
        <use transform="translate(40.679) scale(.06173)" xlink:href="#bn"/>
        <use transform="translate(51.79) scale(.06173)" xlink:href="#bh"/>
        <use transform="translate(64.136) scale(.06173)" xlink:href="#bo"/>
      </g>
      <g id="s">
        <use transform="rotate(.413) scale(.06173)" xlink:href="#bp"/>
        <use transform="translate(14.815) scale(.06173)" xlink:href="#bq"/>
        <use transform="translate(27.16) scale(.06173)" xlink:href="#br"/>
        <use transform="translate(39.506) scale(.06173)" xlink:href="#bi"/>
      </g>
      <g id="t">
        <use transform="rotate(.413) scale(.06173)" xlink:href="#bs"/>
        <use transform="translate(18.457) scale(.06173)" xlink:href="#bh"/>
        <use transform="translate(30.802) scale(.06173)" xlink:href="#bj"/>
      </g>
      <g id="u">
        <use transform="rotate(.413) scale(.06173)" xlink:href="#be"/>
        <use transform="translate(14.815) scale(.06173)" xlink:href="#bt"/>
        <use transform="translate(25.926) scale(.06173)" xlink:href="#bg"/>
        <use transform="translate(32.099) scale(.06173)" xlink:href="#bu"/>
        <use transform="translate(36.975) scale(.06173)" xlink:href="#bh"/>
        <use transform="translate(49.321) scale(.06173)" xlink:href="#bm"/>
        <use transform="translate(61.667) scale(.06173)" xlink:href="#bn"/>
      </g>
      <g id="v">
        <use transform="rotate(.413) scale(.06173)" xlink:href="#bs"/>
        <use transform="translate(18.457) scale(.06173)" xlink:href="#bf"/>
        <use transform="translate(30.802) scale(.06173)" xlink:href="#bg"/>
        <use transform="translate(36.975) scale(.06173)" xlink:href="#bl"/>
        <use transform="translate(49.321) scale(.06173)" xlink:href="#bn"/>
      </g>
      <g id="w">
        <use transform="rotate(.413) scale(.06173)" xlink:href="#bp"/>
        <use transform="translate(14.815) scale(.06173)" xlink:href="#bv"/>
        <use transform="translate(19.691) scale(.06173)" xlink:href="#bh"/>
        <use transform="translate(32.037) scale(.06173)" xlink:href="#bw"/>
        <use transform="translate(48.025) scale(.06173)" xlink:href="#bi"/>
        <use transform="translate(66.481) scale(.06173)" xlink:href="#bh"/>
        <use transform="translate(78.827) scale(.06173)" xlink:href="#bj"/>
        <use transform="translate(91.173) scale(.06173)" xlink:href="#bl"/>
      </g>
      <g id="x">
        <use transform="rotate(.413) scale(.06173)" xlink:href="#bk"/>
        <use transform="translate(15.988) scale(.06173)" xlink:href="#bh"/>
        <use transform="translate(28.333) scale(.06173)" xlink:href="#bf"/>
        <use transform="translate(40.679) scale(.06173)" xlink:href="#bm"/>
        <use transform="translate(53.025) scale(.06173)" xlink:href="#bg"/>
        <use transform="translate(59.198) scale(.06173)" xlink:href="#bl"/>
        <use transform="translate(71.543) scale(.06173)" xlink:href="#bo"/>
        <use transform="translate(78.889) scale(.06173)" xlink:href="#bn"/>
      </g>
      <g id="y">
        <use transform="rotate(.413) scale(.06173)" xlink:href="#bx"/>
        <use transform="translate(11.05) scale(.06173)" xlink:href="#br"/>
        <use transform="translate(23.395) scale(.06173)" xlink:href="#by"/>
        <use transform="translate(35.74) scale(.06173)" xlink:href="#bn"/>
      </g>
      <g id="z">
        <use transform="rotate(.413) scale(.06173)" xlink:href="#bz"/>
        <use transform="translate(14.815) scale(.06173)" xlink:href="#bA"/>
        <use transform="translate(27.16) scale(.06173)" xlink:href="#bu"/>
        <use transform="translate(32.037) scale(.06173)" xlink:href="#bn"/>
        <use transform="translate(43.148) scale(.06173)" xlink:href="#bA"/>
        <use transform="translate(55.494) scale(.06173)" xlink:href="#bl"/>
        <use transform="translate(67.84) scale(.06173)" xlink:href="#bo"/>
        <use transform="translate(75.185) scale(.06173)" xlink:href="#bi"/>
        <use transform="translate(93.642) scale(.06173)" xlink:href="#br"/>
        <use transform="translate(105.988) scale(.06173)" xlink:href="#bm"/>
      </g>
      <g id="A">
        <use transform="rotate(.413) scale(.06173)" xlink:href="#bB"/>
        <use transform="translate(12.346) scale(.06173)" xlink:href="#bh"/>
        <use transform="translate(24.691) scale(.06173)" xlink:href="#by"/>
        <use transform="translate(37.037) scale(.06173)" xlink:href="#bn"/>
      </g>
      <g id="B">
        <use transform="rotate(.413) scale(.06173)" xlink:href="#bk"/>
        <use transform="translate(15.988) scale(.06173)" xlink:href="#br"/>
        <use transform="translate(28.333) scale(.06173)" xlink:href="#bn"/>
        <use transform="translate(39.444) scale(.06173)" xlink:href="#bl"/>
        <use transform="translate(51.79) scale(.06173)" xlink:href="#bn"/>
      </g>
      <g id="C">
        <use transform="rotate(.413) scale(.06173)" xlink:href="#bz"/>
        <use transform="translate(14.815) scale(.06173)" xlink:href="#bl"/>
        <use transform="translate(27.16) scale(.06173)" xlink:href="#bo"/>
        <use transform="translate(34.506) scale(.06173)" xlink:href="#bn"/>
        <use transform="translate(45.617) scale(.06173)" xlink:href="#bu"/>
        <use transform="translate(50.494) scale(.06173)" xlink:href="#bn"/>
        <use transform="translate(61.605) scale(.06173)" xlink:href="#bg"/>
      </g>
      <g id="D">
        <use transform="rotate(.413) scale(.06173)" xlink:href="#bC"/>
        <use transform="translate(15.988) scale(.06173)" xlink:href="#bh"/>
        <use transform="translate(28.333) scale(.06173)" xlink:href="#bv"/>
        <use transform="translate(33.21) scale(.06173)" xlink:href="#bl"/>
      </g>
      <g id="E">
        <use transform="rotate(.413) scale(.06173)" xlink:href="#bD"/>
        <use transform="translate(14.815) scale(.06173)" xlink:href="#bf"/>
        <use transform="translate(27.16) scale(.06173)" xlink:href="#bg"/>
        <use transform="translate(33.333) scale(.06173)" xlink:href="#bg"/>
        <use transform="translate(39.506) scale(.06173)" xlink:href="#bh"/>
        <use transform="translate(51.852) scale(.06173)" xlink:href="#bm"/>
        <use transform="translate(64.198) scale(.06173)" xlink:href="#bn"/>
      </g>
      <g id="F">
        <use transform="rotate(.413) scale(.06173)" xlink:href="#bp"/>
        <use transform="translate(14.815) scale(.06173)" xlink:href="#bl"/>
        <use transform="translate(27.16) scale(.06173)" xlink:href="#bv"/>
        <use transform="translate(32.037) scale(.06173)" xlink:href="#bE"/>
      </g>
      <g id="G">
        <use transform="rotate(.413) scale(.06173)" xlink:href="#bC"/>
        <use transform="translate(15.988) scale(.06173)" xlink:href="#bh"/>
        <use transform="translate(28.333) scale(.06173)" xlink:href="#bv"/>
        <use transform="translate(33.21) scale(.06173)" xlink:href="#bl"/>
        <use transform="translate(45.556) scale(.06173)" xlink:href="#bn"/>
      </g>
      <g id="H">
        <use transform="rotate(.413) scale(.06173)" xlink:href="#bF"/>
        <use transform="translate(20.494) scale(.06173)" xlink:href="#bl"/>
        <use transform="translate(32.84) scale(.06173)" xlink:href="#bv"/>
        <use transform="translate(37.716) scale(.06173)" xlink:href="#bt"/>
        <use transform="translate(48.827) scale(.06173)" xlink:href="#bh"/>
        <use transform="translate(61.173) scale(.06173)" xlink:href="#bi"/>
        <use transform="translate(79.63) scale(.06173)" xlink:href="#bl"/>
      </g>
      <g id="I">
        <use transform="rotate(.413) scale(.06173)" xlink:href="#bs"/>
        <use transform="translate(18.457) scale(.06173)" xlink:href="#bl"/>
        <use transform="translate(30.802) scale(.06173)" xlink:href="#bn"/>
        <use transform="translate(41.914) scale(.06173)" xlink:href="#bn"/>
        <use transform="translate(53.025) scale(.06173)" xlink:href="#br"/>
        <use transform="translate(65.37) scale(.06173)" xlink:href="#by"/>
        <use transform="translate(77.716) scale(.06173)" xlink:href="#bl"/>
        <use transform="translate(90.062) scale(.06173)" xlink:href="#bn"/>
      </g>
      <g id="J">
        <use transform="rotate(.413) scale(.06173)" xlink:href="#bp"/>
        <use transform="translate(14.815) scale(.06173)" xlink:href="#bg"/>
        <use transform="translate(20.988) scale(.06173)" xlink:href="#br"/>
        <use transform="translate(33.333) scale(.06173)" xlink:href="#bo"/>
        <use transform="translate(40.679) scale(.06173)" xlink:href="#bG"/>
        <use transform="translate(53.025) scale(.06173)" xlink:href="#bh"/>
        <use transform="translate(65.37) scale(.06173)" xlink:href="#br"/>
        <use transform="translate(77.716) scale(.06173)" xlink:href="#bo"/>
        <use transform="translate(85.062) scale(.06173)" xlink:href="#bj"/>
      </g>
      <g id="K">
        <use transform="rotate(.413) scale(.06173)" xlink:href="#bH"/>
        <use transform="translate(15.988) scale(.06173)" xlink:href="#bg"/>
        <use transform="translate(22.16) scale(.06173)" xlink:href="#bu"/>
        <use transform="translate(27.037) scale(.06173)" xlink:href="#bv"/>
        <use transform="translate(31.914) scale(.06173)" xlink:href="#bu"/>
        <use transform="translate(36.79) scale(.06173)" xlink:href="#bg"/>
        <use transform="translate(42.963) scale(.06173)" xlink:href="#bI"/>
      </g>
      <g id="L">
        <use transform="rotate(.413) scale(.06173)" xlink:href="#be"/>
        <use transform="translate(14.815) scale(.06173)" xlink:href="#bf"/>
        <use transform="translate(27.16) scale(.06173)" xlink:href="#bg"/>
        <use transform="translate(33.333) scale(.06173)" xlink:href="#bh"/>
        <use transform="translate(45.679) scale(.06173)" xlink:href="#bj"/>
        <use transform="translate(58.025) scale(.06173)" xlink:href="#bl"/>
        <use transform="translate(70.37) scale(.06173)" xlink:href="#bv"/>
        <use transform="translate(75.247) scale(.06173)" xlink:href="#bl"/>
        <use transform="translate(87.593) scale(.06173)" xlink:href="#bg"/>
        <use transform="translate(93.765) scale(.06173)" xlink:href="#bl"/>
      </g>
      <g id="M">
        <use transform="rotate(.413) scale(.06173)" xlink:href="#be"/>
        <use transform="translate(14.815) scale(.06173)" xlink:href="#bf"/>
        <use transform="translate(27.16) scale(.06173)" xlink:href="#bg"/>
        <use transform="translate(33.333) scale(.06173)" xlink:href="#bh"/>
        <use transform="translate(45.679) scale(.06173)" xlink:href="#bo"/>
        <use transform="translate(53.025) scale(.06173)" xlink:href="#bl"/>
        <use transform="translate(65.37) scale(.06173)" xlink:href="#br"/>
        <use transform="translate(77.716) scale(.06173)" xlink:href="#bt"/>
        <use transform="translate(88.827) scale(.06173)" xlink:href="#bg"/>
        <use transform="translate(95) scale(.06173)" xlink:href="#bu"/>
        <use transform="translate(99.877) scale(.06173)" xlink:href="#bh"/>
        <use transform="translate(112.222) scale(.06173)" xlink:href="#bm"/>
        <use transform="translate(124.568) scale(.06173)" xlink:href="#bn"/>
      </g>
      <g id="N">
        <use transform="rotate(.413) scale(.06173)" xlink:href="#bC"/>
        <use transform="translate(15.988) scale(.06173)" xlink:href="#bh"/>
        <use transform="translate(28.333) scale(.06173)" xlink:href="#bv"/>
        <use transform="translate(33.21) scale(.06173)" xlink:href="#bl"/>
        <use transform="translate(45.556) scale(.06173)" xlink:href="#bn"/>
      </g>
      <g id="O">
        <use transform="rotate(.413) scale(.06173)" xlink:href="#bz"/>
        <use transform="translate(14.815) scale(.06173)" xlink:href="#bh"/>
        <use transform="translate(27.16) scale(.06173)" xlink:href="#bn"/>
        <use transform="translate(38.272) scale(.06173)" xlink:href="#bg"/>
      </g>
      <g id="P">
        <use transform="rotate(.413) scale(.06173)" xlink:href="#bC"/>
        <use transform="translate(15.988) scale(.06173)" xlink:href="#bl"/>
        <use transform="translate(28.333) scale(.06173)" xlink:href="#bi"/>
        <use transform="translate(46.79) scale(.06173)" xlink:href="#bu"/>
        <use transform="translate(51.667) scale(.06173)" xlink:href="#bm"/>
        <use transform="translate(64.012) scale(.06173)" xlink:href="#bj"/>
        <use transform="translate(76.358) scale(.06173)" xlink:href="#bl"/>
        <use transform="translate(88.704) scale(.06173)" xlink:href="#bo"/>
        <use transform="translate(96.05) scale(.06173)" xlink:href="#bn"/>
      </g>
      <g id="Q">
        <use transform="rotate(.413) scale(.06173)" xlink:href="#bx"/>
        <use transform="translate(12.716) scale(.06173)" xlink:href="#bu"/>
        <use transform="translate(17.593) scale(.06173)" xlink:href="#bi"/>
        <use transform="translate(36.05) scale(.06173)" xlink:href="#bl"/>
      </g>
      <g id="R">
        <use transform="rotate(.413) scale(.06173)" xlink:href="#br"/>
        <use transform="translate(12.346) scale(.06173)" xlink:href="#bm"/>
        <use transform="translate(24.691) scale(.06173)" xlink:href="#bj"/>
      </g>
      <g id="S">
        <use transform="rotate(.413) scale(.06173)" xlink:href="#bJ"/>
        <use transform="translate(15.988) scale(.06173)" xlink:href="#br"/>
        <use transform="translate(28.333) scale(.06173)" xlink:href="#bg"/>
        <use transform="translate(34.506) scale(.06173)" xlink:href="#bl"/>
      </g>
      <g id="T">
        <use transform="rotate(.413) scale(.06173)" xlink:href="#bK"/>
        <use transform="translate(12.346) scale(.06173)" xlink:href="#bL"/>
        <use transform="translate(24.691) scale(.06173)" xlink:href="#bM"/>
        <use transform="translate(35.802) scale(.06173)" xlink:href="#bN"/>
        <use transform="translate(48.148) scale(.06173)" xlink:href="#bO"/>
        <use transform="translate(54.321) scale(.06173)" xlink:href="#bP"/>
      </g>
      <g id="U">
        <use transform="rotate(.413) scale(.06173)" xlink:href="#bQ"/>
        <use transform="translate(15.988) scale(.06173)" xlink:href="#bR"/>
        <use transform="translate(27.099) scale(.06173)" xlink:href="#bP"/>
        <use transform="translate(39.444) scale(.06173)" xlink:href="#bS"/>
      </g>
      <g id="V">
        <use transform="rotate(.413) scale(.06173)" xlink:href="#bT"/>
        <use transform="translate(14.815) scale(.06173)" xlink:href="#bU"/>
        <use transform="translate(19.691) scale(.06173)" xlink:href="#bV"/>
        <use transform="translate(32.037) scale(.06173)" xlink:href="#bW"/>
        <use transform="translate(44.383) scale(.06173)" xlink:href="#bN"/>
        <use transform="translate(56.728) scale(.06173)" xlink:href="#bX"/>
        <use transform="translate(69.074) scale(.06173)" xlink:href="#bY"/>
        <use transform="translate(73.95) scale(.06173)" xlink:href="#bP"/>
      </g>
      <g id="W">
        <use transform="rotate(.413) scale(.06173)" xlink:href="#bZ"/>
        <use transform="translate(15.988) scale(.06173)" xlink:href="#bL"/>
        <use transform="translate(28.333) scale(.06173)" xlink:href="#bY"/>
        <use transform="translate(33.21) scale(.06173)" xlink:href="#bP"/>
        <use transform="translate(45.556) scale(.06173)" xlink:href="#bR"/>
      </g>
      <g id="X">
        <use transform="rotate(.413) scale(.06173)" xlink:href="#ca"/>
        <use transform="translate(15.988) scale(.06173)" xlink:href="#bL"/>
        <use transform="translate(28.333) scale(.06173)" xlink:href="#cb"/>
        <use transform="translate(46.79) scale(.06173)" xlink:href="#cc"/>
        <use transform="translate(59.136) scale(.06173)" xlink:href="#bN"/>
        <use transform="translate(71.481) scale(.06173)" xlink:href="#bV"/>
        <use transform="translate(83.827) scale(.06173)" xlink:href="#bU"/>
        <use transform="translate(88.704) scale(.06173)" xlink:href="#bL"/>
        <use transform="translate(101.05) scale(.06173)" xlink:href="#bV"/>
      </g>
      <g id="Y">
        <use transform="rotate(.413) scale(.06173)" xlink:href="#ca"/>
        <use transform="translate(15.988) scale(.06173)" xlink:href="#cd"/>
        <use transform="translate(28.333) scale(.06173)" xlink:href="#bN"/>
        <use transform="translate(40.679) scale(.06173)" xlink:href="#bV"/>
        <use transform="translate(53.025) scale(.06173)" xlink:href="#bV"/>
        <use transform="translate(65.37) scale(.06173)" xlink:href="#bP"/>
        <use transform="translate(77.716) scale(.06173)" xlink:href="#bY"/>
        <use transform="translate(82.593) scale(.06173)" xlink:href="#bR"/>
      </g>
      <use transform="rotate(.413) scale(.06173)" xlink:href="#ce" id="c"/>
      <use transform="rotate(.413) scale(.06173)" xlink:href="#cf" id="l"/>
    </defs>
  </g>
</svg>
